<?xml version="1.0" encoding="UTF-8" standalone="no"?><!DOCTYPE svg PUBLIC "-//W3C//DTD SVG 1.1//EN" "http://www.w3.org/Graphics/SVG/1.1/DTD/svg11.dtd"><svg width="100%" height="100%" viewBox="0 0 224 78" version="1.1" xmlns="http://www.w3.org/2000/svg" xmlns:xlink="http://www.w3.org/1999/xlink" xml:space="preserve" xmlns:serif="http://www.serif.com/" style="fill-rule:evenodd;clip-rule:evenodd;stroke-linejoin:round;stroke-miterlimit:2;"><g><path d="M9.818,0.221c2.282,0 7.225,0.832 7.225,3.76l0,2.31l-2.498,0l0,-1.478c0,-1.663 -2.872,-2.282 -4.62,-2.282c-4.056,0 -7.037,2.982 -7.037,7.279c0,4.485 3.063,7.68 7.2,7.68c1.34,0 4.726,-0.483 4.726,-2.228l0,-1.479l2.496,0l0,2.31c0,2.794 -4.752,3.735 -7.385,3.735c-5.694,0 -9.802,-4.378 -9.802,-9.911c0,-5.559 4.215,-9.696 9.695,-9.696" style="fill:#fff;fill-rule:nonzero;"/><path d="M19.466,17.412l2.363,0l0,-14.799l-2.363,0l0,-2.068l7.438,0l0,2.068l-2.391,0l0,6.312l9.833,0l0,-6.312l-2.395,0l0,-2.068l7.442,0l0,2.068l-2.367,0l0,14.799l2.367,0l0,2.093l-7.442,0l0,-2.093l2.395,0l0,-6.284l-9.833,0l0,6.284l2.391,0l0,2.093l-7.438,0" style="fill:#fff;fill-rule:nonzero;"/><path d="M42.029,17.412l2.364,0l0,-14.799l-2.364,0l0,-2.068l13.722,0l0,4.406l-2.335,0l0,-2.203l-6.337,0l0,6.095l6.714,0l0,2.203l-6.714,0l0,6.259l6.795,0l0,-2.285l2.336,0l0,4.485l-14.181,0" style="fill:#fff;fill-rule:nonzero;"/><path d="M59.489,17.412l2.364,0l0,-14.664l-2.364,0l0,-2.203l7.439,0l0,2.203l-2.389,0l0,14.557l6.607,0l0,-3.063l2.364,0l0,5.263l-14.021,0" style="fill:#fff;fill-rule:nonzero;"/><path d="M77.351,17.412l2.392,0l0,-14.664l-4.46,0l0,2.953l-2.335,0l0,-5.156l16.274,0l0,5.156l-2.336,0l0,-2.953l-4.46,0l0,14.664l2.392,0l0,2.093l-7.467,0" style="fill:#fff;fill-rule:nonzero;"/><path d="M91.211,17.412l2.364,0l0,-14.799l-2.364,0l0,-2.068l13.722,0l0,4.406l-2.335,0l0,-2.203l-6.337,0l0,6.095l6.714,0l0,2.203l-6.714,0l0,6.259l6.796,0l0,-2.285l2.335,0l0,4.485l-14.181,0" style="fill:#fff;fill-rule:nonzero;"/><path d="M107.975,17.412l2.363,0l0,-14.799l-2.363,0l0,-2.068l5.022,0l9.318,13.59c0.323,0.537 0.647,1.368 0.647,1.368l0.078,0c0,0 -0.132,-0.938 -0.132,-1.528l0,-11.362l-2.42,0l0,-2.068l7.495,0l0,2.068l-2.391,0l0,16.892l-2.63,0l-9.319,-13.59c-0.351,-0.534 -0.646,-1.369 -0.646,-1.369l-0.082,0c0,0 0.135,0.942 0.11,1.532l0,11.334l2.442,0l0,2.093l-7.492,0" style="fill:#fff;fill-rule:nonzero;"/><path d="M130.268,17.412l2.364,0l0,-14.799l-2.364,0l0,-2.068l7.439,0l0,2.068l-2.389,0l0,6.312l9.83,0l0,-6.312l-2.391,0l0,-2.068l7.438,0l0,2.068l-2.363,0l0,14.799l2.363,0l0,2.093l-7.438,0l0,-2.093l2.391,0l0,-6.284l-9.83,0l0,6.284l2.389,0l0,2.093l-7.439,0" style="fill:#fff;fill-rule:nonzero;"/><path d="M163.764,11.046l-2.31,-6.578c-0.267,-0.782 -0.324,-1.453 -0.324,-1.453l-0.078,0c0,0 -0.082,0.671 -0.323,1.453l-2.336,6.578l5.371,0Zm-12.059,6.366l1.827,0l6.042,-16.867l3.035,0l6.041,16.867l1.827,0l0,2.093l-6.578,0l0,-2.093l2.011,0l-1.475,-4.219l-6.713,0l-1.479,4.219l2.041,0l0,2.093l-6.579,0" style="fill:#fff;fill-rule:nonzero;"/><path d="M171.582,17.412l2.363,0l1.209,-14.799l-2.417,0l0,-2.068l5.37,0l4.862,11.55c0.295,0.778 0.43,1.368 0.43,1.368l0.053,0c0,0 0.135,-0.59 0.43,-1.368l4.862,-11.55l5.37,0l0,2.068l-2.417,0l1.209,14.799l2.363,0l0,2.093l-7.304,0l0,-2.093l2.282,0l-0.86,-11.334c-0.025,-0.59 0.082,-1.557 0.082,-1.557l-0.082,0c0,0 -0.213,0.91 -0.43,1.45l-4.35,9.962l-2.363,0l-4.35,-9.962c-0.217,-0.54 -0.43,-1.45 -0.43,-1.45l-0.082,0c0,0 0.11,0.967 0.082,1.557l-0.86,11.334l2.281,0l0,2.093l-7.303,0" style="fill:#fff;fill-rule:nonzero;"/><path d="M191.98,70.577l-0.044,0.069c-0.06,0.069 -0.138,0.109 -0.211,0.109c-0.15,0 -0.254,-0.122 -0.269,-0.273c-0.007,-0.053 0.047,-0.163 0.047,-0.163c0.153,-0.304 0.295,-0.609 0.423,-0.919l0.054,-0.126c0.097,-0.235 0.163,-0.421 0.229,-0.609l0.031,-0.091c0.057,-0.173 0.113,-0.345 0.163,-0.521l0.038,-0.132c0.044,-0.163 0.088,-0.329 0.126,-0.496l0.022,-0.097l0.015,-0.066c0.035,-0.16 0.066,-0.317 0.094,-0.474l0.035,-0.191c0.022,-0.154 0.044,-0.308 0.063,-0.465l0.025,-0.204c0.019,-0.16 0.031,-0.323 0.041,-0.483l0.015,-0.179c0.013,-0.235 0.019,-0.465 0.019,-0.691c0,-0.166 -0.003,-0.329 -0.009,-0.492c-0.007,-0.173 -0.019,-0.342 -0.032,-0.509c-0.012,-0.172 -0.031,-0.339 -0.05,-0.499c-0.022,-0.185 -0.044,-0.342 -0.069,-0.502c-0.031,-0.188 -0.06,-0.342 -0.091,-0.496c-0.038,-0.191 -0.072,-0.345 -0.11,-0.496c-0.047,-0.188 -0.088,-0.339 -0.132,-0.489c-0.053,-0.186 -0.1,-0.333 -0.147,-0.481c-0.063,-0.182 -0.113,-0.329 -0.17,-0.477c-0.066,-0.175 -0.125,-0.323 -0.188,-0.467c-0.072,-0.17 -0.135,-0.314 -0.204,-0.459c-0.078,-0.163 -0.151,-0.304 -0.223,-0.448c-0.081,-0.157 -0.16,-0.299 -0.238,-0.437c-0.088,-0.153 -0.173,-0.292 -0.258,-0.43c-1.723,-2.743 -4.397,-4.692 -7.526,-5.492c-0.562,-0.145 -1.158,-0.251 -1.78,-0.32c-0.492,-0.057 -0.948,-0.082 -1.39,-0.082c-0.939,0 -1.918,0.122 -2.91,0.367l-0.072,0.019c-0.213,0.053 -0.423,0.11 -0.634,0.176l-0.072,0.019c-0.198,0.062 -0.395,0.128 -0.593,0.201l-0.094,0.034c-0.214,0.082 -0.402,0.154 -0.587,0.232l-0.236,0.104c-0.103,0.047 -0.21,0.094 -0.313,0.141c-0.051,0.025 -0.101,0.05 -0.151,0.079l-0.603,0.317c-0.05,0.028 -0.103,0.053 -0.16,0.075c-0.059,0.031 -0.135,0.06 -0.207,0.085c-0.107,0.034 -0.179,0.05 -0.257,0.062c-0.138,0.026 -0.273,0.032 -0.402,0.022l-0.079,-0.009c-0.081,-0.006 -0.16,-0.022 -0.238,-0.044l-0.075,-0.022c-0.047,-0.016 -0.095,-0.031 -0.138,-0.05l-0.085,-0.041c-0.076,-0.038 -0.129,-0.066 -0.182,-0.1c-0.029,-0.019 -0.06,-0.041 -0.091,-0.066c-0.198,-0.145 -0.364,-0.336 -0.48,-0.546c-0.032,-0.057 -0.051,-0.101 -0.07,-0.145c-0.031,-0.072 -0.047,-0.113 -0.062,-0.157c-0.022,-0.088 -0.035,-0.128 -0.044,-0.169l-0.025,-0.173c-0.007,-0.037 -0.01,-0.088 -0.01,-0.135c0,-0.411 0.119,-0.766 0.349,-1.067c0.113,-0.176 0.521,-0.455 0.643,-0.537l47.202,-22.965l-27.623,42.871Zm-35.288,-25.448l-0.059,0.587l-9.617,0c0.383,1.971 1.88,2.796 3.528,2.796c1.148,0 2.178,-0.383 2.972,-0.734c0.471,-0.208 0.91,-0.443 1.293,-0.707l1.852,3.528c-0.499,0.383 -1.086,0.738 -1.733,1.061c-1.148,0.559 -2.708,1.058 -4.795,1.058c-5.411,0 -8.324,-3.914 -8.324,-7.941c0,-4.441 3,-7.912 7.881,-7.912c4.532,0 7.062,3.116 7.062,7.322c0,0.235 -0.031,0.618 -0.06,0.942m-15.765,-3.117l-0.295,-0.06c-0.207,-0.028 -0.411,-0.028 -0.734,-0.028c-2.825,0 -4.178,1.764 -4.178,4.557l0,2.207l2.059,0l0,3.675l-9.206,0l0,-3.675l2.059,0l0,-7.147c0,-0.442 -0.207,-0.646 -0.646,-0.646l-1.413,0l0,-3.679l4.793,0c1.384,0 2.147,0.559 2.147,1.943l0,0.794c0,0.264 0,0.471 -0.028,0.559c-0.029,0.088 -0.029,0.147 -0.029,0.204l0.057,0c0.65,-2.056 2.561,-3.763 4.824,-3.763c0.207,0 0.323,0 0.414,0.028c0.088,0.031 0.145,0.031 0.176,0.031l0,5Zm-13.973,10.351l-4.677,0c-1.381,0 -2.087,-0.675 -2.087,-1.704l0,-0.411c0,-0.12 0.028,-0.207 0.028,-0.295l0,-0.148l-0.059,0c-0.264,0.531 -0.647,1.001 -1.118,1.441c-0.794,0.737 -2.058,1.472 -4.029,1.472c-2.675,0 -4.969,-1.441 -4.969,-5.678l0,-6.145l-2.059,0l0,-3.679l7.147,0l0,9.03c0,1.412 0.53,1.999 1.676,1.999c1.999,0 3.148,-2.322 3.148,-4.617l0,-2.733l-2.059,0l0,-3.679l7.147,0l0,10.825c0,0.44 0.207,0.647 0.646,0.647l1.265,0l0,3.675Zm-20.147,0.06l-0.383,0.059c-0.235,0.029 -0.558,0.029 -1.001,0.029c-2.439,0 -7.087,-0.647 -7.087,-5.735l0,-5.881l-2.059,0l0,-3.679l2.207,0l0,-4.089l4.94,0l0,4.089l3.176,0l0,3.679l-3.176,0l0,5.351c0,1.795 1.735,2.09 2.705,2.09c0.207,0 0.383,-0.031 0.502,-0.031l0.176,0l0,4.118Zm-11.148,-0.06l-4.385,0c-1.5,0 -2.027,-0.854 -2.027,-1.588l0,-0.088c0,-0.147 0,-0.264 0.028,-0.323c0.031,-0.06 0.031,-0.116 0.031,-0.148l-0.059,0c-0.264,0.471 -0.619,0.882 -1.03,1.237c-0.706,0.618 -1.795,1.265 -3.443,1.265c-2.646,0 -4.968,-1.62 -4.968,-4.677c0,-4.441 5.734,-5.087 8.088,-5.087l0.91,0l0,-0.443c0,-1.265 -0.998,-1.676 -2.147,-1.676c-1.029,0 -2.059,0.352 -2.853,0.706c-0.47,0.204 -0.91,0.471 -1.324,0.735l-1.764,-3.44c0.53,-0.383 1.117,-0.706 1.764,-1.001c1.149,-0.5 2.737,-0.97 4.648,-0.97c4.441,0 6.767,2.175 6.767,6.176l0,5c0,0.44 0.204,0.647 0.646,0.647l1.118,0l0,3.675Zm-16.679,-10.351l-0.295,-0.06c-0.204,-0.028 -0.411,-0.028 -0.734,-0.028c-2.825,0 -4.178,1.764 -4.178,4.557l0,2.207l2.059,0l0,3.675l-9.205,0l0,-3.675l2.059,0l0,-7.147c0,-0.442 -0.204,-0.646 -0.647,-0.646l-1.412,0l0,-3.679l4.795,0c1.381,0 2.147,0.559 2.147,1.943l0,0.794c0,0.264 0,0.471 -0.028,0.559c-0.031,0.088 -0.031,0.147 -0.031,0.204l0.059,0c0.647,-2.056 2.558,-3.763 4.824,-3.763c0.204,0 0.324,0 0.411,0.028c0.088,0.031 0.148,0.031 0.176,0.031l0,5Zm-1.88,28.891l-0.229,0.041c-0.135,0.019 -0.307,0.019 -0.518,0.019c-1.28,0 -2.181,-0.634 -2.181,-2.471l0,-9.974l-1.704,0l0,-1.073l3.006,0l0,10.95c0,0.785 0.23,1.438 1.09,1.438c0.21,0 0.345,0 0.404,-0.019c0.057,-0.019 0.095,-0.019 0.132,-0.019l0,1.108Zm-5.072,0l-1.569,0c-0.822,0 -1.149,-0.361 -1.149,-1.052l0,-0.172c0,-0.229 0.019,-0.421 0.038,-0.556c0.019,-0.075 0.019,-0.131 0.019,-0.191l-0.038,0c-0.173,0.402 -0.421,0.766 -0.728,1.092c-0.515,0.556 -1.318,1.111 -2.564,1.111c-1.589,0 -3.217,-0.901 -3.217,-2.872c0,-3.123 4.174,-3.254 5.8,-3.254l0.634,0l0,-0.402c0,-1.802 -0.976,-2.433 -2.317,-2.433c-0.825,0 -1.494,0.23 -2.011,0.459c-0.286,0.135 -0.556,0.307 -0.785,0.48l-0.612,-0.979c0.267,-0.207 0.574,-0.402 0.919,-0.553c0.594,-0.288 1.472,-0.536 2.565,-0.536c2.354,0 3.54,1.224 3.54,3.618l0,4.749c0,0.286 0.135,0.421 0.424,0.421l1.051,0l0,1.07Zm-10.087,-8.556l-1.262,0l-3.274,8.556l-1.399,0l-3.274,-8.556l-1.262,0l0,-1.073l3.98,0l0,1.073l-1.378,0l2.414,6.45c0.075,0.173 0.094,0.345 0.154,0.499c0.018,0.097 0.037,0.173 0.037,0.248l0.057,0c0,-0.075 0.019,-0.151 0.037,-0.248c0.06,-0.154 0.098,-0.326 0.154,-0.499l2.414,-6.45l-1.381,0l0,-1.073l3.983,0l0,1.073Zm-11.045,8.556l-4.557,0l0,-1.07l1.629,0l0,-7.486l-1.723,0l0,-1.073l3.025,0l0,8.559l1.626,0l0,1.07Zm-5.932,0.041c-0.06,0 -0.097,0 -0.154,0.019c-0.059,0.018 -0.191,0.018 -0.402,0.018c-1.111,0 -3.37,-0.364 -3.37,-3.581l0,-5.053l-1.724,0l0,-1.073l1.742,0l0,-2.662l1.284,0l0,2.662l2.433,0l0,1.073l-2.433,0l0,4.937c0,2.241 1.434,2.567 2.181,2.567c0.173,0 0.27,0 0.327,-0.018c0.056,-0.019 0.094,-0.019 0.116,-0.019l0,1.13Zm4.4,-11.87l-1.475,0l0,-1.629l1.475,0l0,1.629Zm-11.151,-21.858l2.206,0l0,-4.089l4.944,0l0,4.089l3.176,0l0,3.679l-3.176,0l0,5.351c0,1.795 1.732,2.09 2.705,2.09c0.204,0 0.38,-0.031 0.499,-0.031l0.176,0l0,4.118l-0.383,0.059c-0.235,0.029 -0.559,0.029 -0.998,0.029c-2.442,0 -7.09,-0.647 -7.09,-5.735l0,-5.881l-2.059,0l0,-3.679Zm-3.741,33.919c-1.78,0 -3.638,-0.825 -3.638,-2.278l0,-0.939l1.189,0l0,0.687c0,0.999 1.397,1.4 2.508,1.4c1.224,0 2.257,-0.518 2.257,-1.513c0,-1.111 -1.224,-1.494 -2.602,-2.011c-1.438,-0.575 -2.988,-1.168 -2.988,-2.872c0,-1.761 1.723,-2.564 3.333,-2.564c1.3,0 3.195,0.555 3.195,1.876l0,1.108l-1.186,0l0,-0.706c0,-0.709 -0.957,-1.149 -1.971,-1.149c-1.074,0 -2.031,0.459 -2.031,1.397c0,1.055 1.149,1.494 2.433,1.952c1.494,0.518 3.138,1.168 3.138,2.891c0,1.667 -1.491,2.721 -3.637,2.721m-5.396,-5.266l-0.037,0.229l-7.392,0c0.057,2.47 1.742,3.866 3.735,3.866c0.898,0 1.607,-0.285 2.125,-0.571c0.304,-0.172 0.574,-0.364 0.804,-0.577l0.593,0.979c-0.286,0.248 -0.593,0.458 -0.958,0.669c-0.612,0.364 -1.512,0.671 -2.605,0.671c-2.849,0 -5.034,-2.068 -5.034,-5.037c0,-3.158 2.144,-5.053 4.749,-5.053c2.661,0 4.039,2.046 4.039,4.441c0,0.135 0,0.248 -0.019,0.383m-10.068,-5.553l-1.206,0l0,-1.685l-4.748,0l0,5.075l4.921,0l0,1.149l-4.921,0l0,4.94l1.877,0l0,1.108l-4.978,0l0,-1.108l1.761,0l0,-11.239l-1.761,0l0,-1.111l9.055,0l0,2.871Zm-8.619,-11.776l2.354,0l0,-13.088l-2.354,0l0,-4.118l9.971,0l0,4.118l-2.354,0l0,12.793l4.529,0l0,-3.088l4.413,0l0,7.206l-16.559,0l0,-3.823Zm17.912,-11.324l7.147,0l0,11.472l1.911,0l0,3.675l-8.91,0l0,-3.675l1.911,0l0,-7.793l-2.059,0l0,-3.679Zm2.119,-5.882l4.971,0l0,3.971l-4.971,0l0,-3.971Zm27.5,5.531c4.529,0 7.059,3.116 7.059,7.322c0,0.235 -0.028,0.618 -0.06,0.942l-0.056,0.587l-9.62,0c0.383,1.971 1.883,2.796 3.531,2.796c1.145,0 2.175,-0.383 2.969,-0.734c0.471,-0.208 0.913,-0.443 1.296,-0.707l1.852,3.528c-0.499,0.383 -1.089,0.738 -1.736,1.061c-1.145,0.559 -2.705,1.058 -4.792,1.058c-5.414,0 -8.324,-3.914 -8.324,-7.941c0,-4.441 2.997,-7.912 7.881,-7.912m164.89,-10.64l-221.237,0l0,51.122l181.546,0.012c4.969,0 9.153,-2.847 11.704,-6.924c0,-0.003 0.003,-0.006 0,0l28.147,-44.207" style="fill:#fff;fill-rule:nonzero;"/><path d="M84.922,47.687c0,0.794 0.53,1.352 1.352,1.352c1.293,0 2.59,-1.556 2.59,-2.881l0,-0.355l-0.471,0c-1.676,0 -3.471,0.531 -3.471,1.884" style="fill:#fff;fill-rule:nonzero;"/><path d="M25.018,62.134c-1.61,0 -3.007,1.054 -3.311,3.006l6.029,0c-0.056,-2.049 -1.302,-3.006 -2.718,-3.006" style="fill:#fff;fill-rule:nonzero;"/><path d="M57.801,40.688c-1.5,0 -2.175,1.057 -2.442,2.234l4.353,0c0,-1.205 -0.766,-2.234 -1.911,-2.234" style="fill:#fff;fill-rule:nonzero;"/><path d="M149.574,40.688c-1.5,0 -2.175,1.057 -2.442,2.234l4.353,0c0,-1.205 -0.766,-2.234 -1.911,-2.234" style="fill:#fff;fill-rule:nonzero;"/><path d="M69.254,66.443c0,1.685 -1.096,3.619 -3.026,3.619c-1.34,0 -2.068,-0.939 -2.068,-1.934c0,-2.222 3.754,-2.143 4.538,-2.143l0.556,0" style="fill:#fff;fill-rule:nonzero;"/></g></svg>