<?xml version="1.0" encoding="UTF-8" standalone="no"?><!DOCTYPE svg PUBLIC "-//W3C//DTD SVG 1.1//EN" "http://www.w3.org/Graphics/SVG/1.1/DTD/svg11.dtd"><svg width="100%" height="100%" viewBox="0 0 336 121" version="1.1" xmlns="http://www.w3.org/2000/svg" xmlns:xlink="http://www.w3.org/1999/xlink" xml:space="preserve" xmlns:serif="http://www.serif.com/" style="fill-rule:evenodd;clip-rule:evenodd;stroke-linejoin:round;stroke-miterlimit:2;"><g><path d="M16.73,0.026c3.913,0 12.383,1.427 12.383,6.445l0,3.959l-4.281,0l0,-2.532c0,-2.854 -4.926,-3.913 -7.918,-3.913c-6.951,0 -12.061,5.11 -12.061,12.476c0,7.687 5.248,13.166 12.337,13.166c2.302,0 8.102,-0.829 8.102,-3.821l0,-2.532l4.282,0l0,3.959c0,4.787 -8.149,6.399 -12.66,6.399c-9.759,0 -16.803,-7.504 -16.803,-16.987c0,-9.53 7.228,-16.619 16.619,-16.619" style="fill:#4c4f54;fill-rule:nonzero;"/><path d="M33.256,29.488l4.051,0l0,-25.365l-4.051,0l0,-3.545l12.752,0l0,3.545l-4.097,0l0,10.818l16.848,0l0,-10.818l-4.097,0l0,-3.545l12.752,0l0,3.545l-4.051,0l0,25.365l4.051,0l0,3.591l-12.752,0l0,-3.591l4.097,0l0,-10.772l-16.848,0l0,10.772l4.097,0l0,3.591l-12.752,0l0,-3.591" style="fill:#4c4f54;fill-rule:nonzero;"/><path d="M71.926,29.488l4.051,0l0,-25.365l-4.051,0l0,-3.545l23.524,0l0,7.55l-4.005,0l0,-3.775l-10.864,0l0,10.45l11.508,0l0,3.775l-11.508,0l0,10.726l11.646,0l0,-3.913l4.005,0l0,7.688l-24.306,0l0,-3.591" style="fill:#4c4f54;fill-rule:nonzero;"/><path d="M101.849,29.488l4.051,0l0,-25.135l-4.051,0l0,-3.775l12.752,0l0,3.775l-4.097,0l0,24.951l11.325,0l0,-5.248l4.05,0l0,9.023l-24.03,0l0,-3.591" style="fill:#4c4f54;fill-rule:nonzero;"/><path d="M132.462,29.488l4.097,0l0,-25.135l-7.642,0l0,5.064l-4.004,0l0,-8.839l27.897,0l0,8.839l-4.006,0l0,-5.064l-7.641,0l0,25.135l4.097,0l0,3.591l-12.798,0l0,-3.591" style="fill:#4c4f54;fill-rule:nonzero;"/><path d="M156.217,29.488l4.051,0l0,-25.365l-4.051,0l0,-3.545l23.524,0l0,7.55l-4.006,0l0,-3.775l-10.863,0l0,10.45l11.508,0l0,3.775l-11.508,0l0,10.726l11.646,0l0,-3.913l4.004,0l0,7.688l-24.305,0l0,-3.591" style="fill:#4c4f54;fill-rule:nonzero;"/><path d="M184.943,29.488l4.051,0l0,-25.365l-4.051,0l0,-3.545l8.608,0l15.975,23.294c0.552,0.92 1.104,2.347 1.104,2.347l0.138,0c0,0 -0.23,-1.611 -0.23,-2.623l0,-19.473l-4.143,0l0,-3.545l12.843,0l0,3.545l-4.097,0l0,28.956l-4.511,0l-15.974,-23.294c-0.599,-0.921 -1.105,-2.348 -1.105,-2.348l-0.138,0c0,0 0.23,1.611 0.184,2.624l0,19.427l4.19,0l0,3.591l-12.844,0l0,-3.591" style="fill:#4c4f54;fill-rule:nonzero;"/><path d="M223.152,29.488l4.051,0l0,-25.365l-4.051,0l0,-3.545l12.752,0l0,3.545l-4.097,0l0,10.818l16.849,0l0,-10.818l-4.097,0l0,-3.545l12.75,0l0,3.545l-4.05,0l0,25.365l4.05,0l0,3.591l-12.75,0l0,-3.591l4.097,0l0,-10.772l-16.849,0l0,10.772l4.097,0l0,3.591l-12.752,0l0,-3.591" style="fill:#4c4f54;fill-rule:nonzero;"/><path d="M280.558,18.578l-3.959,-11.279c-0.461,-1.334 -0.552,-2.485 -0.552,-2.485l-0.138,0c0,0 -0.138,1.151 -0.552,2.485l-4.006,11.279l9.207,0Zm-20.669,10.91l3.13,0l10.357,-28.91l5.203,0l10.358,28.91l3.131,0l0,3.591l-11.279,0l0,-3.591l3.452,0l-2.532,-7.227l-11.509,0l-2.532,7.227l3.499,0l0,3.591l-11.278,0l0,-3.591" style="fill:#4c4f54;fill-rule:nonzero;"/><path d="M293.955,29.488l4.051,0l2.071,-25.365l-4.143,0l0,-3.545l9.208,0l8.332,19.795c0.506,1.335 0.736,2.348 0.736,2.348l0.093,0c0,0 0.229,-1.013 0.736,-2.348l8.332,-19.795l9.207,0l0,3.545l-4.143,0l2.072,25.365l4.05,0l0,3.591l-12.521,0l0,-3.591l3.913,0l-1.473,-19.427c-0.045,-1.013 0.138,-2.67 0.138,-2.67l-0.138,0c0,0 -0.368,1.565 -0.737,2.486l-7.457,17.079l-4.051,0l-7.458,-17.079c-0.368,-0.921 -0.736,-2.486 -0.736,-2.486l-0.138,0c0,0 0.184,1.657 0.138,2.67l-1.474,19.427l3.913,0l0,3.591l-12.521,0l0,-3.591" style="fill:#4c4f54;fill-rule:nonzero;"/><path d="M280.251,81.995c-1.591,-0.414 -3.233,-0.623 -4.882,-0.623c-3.263,0 -6.694,0.924 -9.659,2.601c-0.062,0.036 -0.128,0.067 -0.196,0.095c-0.308,0.154 -0.632,0.231 -0.96,0.231c-1.193,0 -2.164,-0.97 -2.164,-2.164c0,-0.469 0.152,-0.919 0.442,-1.301c0.161,-0.241 0.401,-0.464 0.674,-0.618l72.079,-37.244l-9.889,-0.006l-324.215,0l0,77.145l264.972,0l0.011,0.02l8.985,0c10.68,0 19.369,-8.689 19.369,-19.369c0,-8.862 -5.99,-16.579 -14.567,-18.767" style="fill:#e21d8e;fill-rule:nonzero;"/><path d="M263.506,80.216c-0.274,0.154 -0.514,0.377 -0.674,0.618c-0.29,0.382 -0.442,0.832 -0.442,1.302c0,1.193 0.971,2.164 2.163,2.164c0.117,0 0.232,-0.014 0.346,-0.033c0.098,-0.017 0.194,-0.041 0.29,-0.07c0.011,-0.004 0.022,-0.007 0.034,-0.011c0.097,-0.032 0.195,-0.07 0.291,-0.118c0.067,-0.028 0.133,-0.059 0.196,-0.094c2.965,-1.678 6.395,-2.602 9.658,-2.602c1.65,0 3.291,0.21 4.883,0.623c8.577,2.188 14.567,9.905 14.567,18.767c0,0.352 -0.012,0.701 -0.03,1.047c-0.005,0.098 -0.015,0.196 -0.022,0.293c-0.018,0.25 -0.036,0.499 -0.063,0.746c-0.01,0.106 -0.027,0.21 -0.039,0.314c-0.031,0.241 -0.062,0.481 -0.101,0.717c-0.015,0.099 -0.035,0.195 -0.052,0.293c-0.043,0.246 -0.091,0.489 -0.144,0.732c-0.019,0.084 -0.039,0.168 -0.058,0.252c-0.06,0.257 -0.124,0.511 -0.194,0.764c-0.019,0.067 -0.038,0.134 -0.058,0.202c-0.078,0.271 -0.161,0.539 -0.252,0.806c-0.015,0.047 -0.031,0.095 -0.047,0.142c-0.1,0.288 -0.207,0.574 -0.319,0.855c-0.011,0.026 -0.02,0.053 -0.031,0.078c-0.125,0.309 -0.654,1.427 -0.794,1.727l0.023,-0.05l-0.023,0.05l42.971,-66.758l-72.079,37.244" style="fill:#ef83c1;fill-rule:nonzero;"/><path d="M294.612,110.113c0.001,-0.001 0.001,-0.002 0.002,-0.005l0,0.002c-0.001,0.001 -0.001,0.002 -0.002,0.003" style="fill:#ec3484;fill-rule:nonzero;"/><path d="M15.236,79.709l3.541,0l0,-20.142l-3.541,0l0,-5.755l23.594,0l0,9.341l-6.639,0l0,-2.701l-5.49,0l0,6.862l9.296,0l0,6.197l-9.296,0l0,6.198l3.984,0l0,5.755l-15.449,0l0,-5.755" style="fill:#fff;fill-rule:nonzero;"/><path d="M54.277,71.254c0,-1.815 -1.151,-3.364 -2.877,-3.364c-2.258,0 -3.276,1.593 -3.675,3.364l6.552,0Zm-2.701,-9.119c6.818,0 10.625,4.692 10.625,11.022c0,0.355 -0.044,0.93 -0.089,1.417l-0.089,0.885l-14.475,0c0.576,2.967 2.833,4.206 5.312,4.206c1.726,0 3.276,-0.575 4.471,-1.107c0.708,-0.31 1.372,-0.663 1.947,-1.062l2.789,5.311c-0.752,0.576 -1.637,1.107 -2.611,1.594c-1.726,0.842 -4.072,1.594 -7.216,1.594c-8.145,0 -12.527,-5.887 -12.527,-11.952c0,-6.685 4.515,-11.908 11.863,-11.908" style="fill:#fff;fill-rule:nonzero;"/><path d="M64.145,77.407l6.419,0l0,1.151c0,1.107 1.106,1.638 3.32,1.638c1.86,0 2.789,-0.443 2.789,-1.329c0,-1.416 -1.505,-1.638 -4.471,-2.567c-3.321,-1.062 -7.26,-2.745 -7.26,-7.304c0,-5.357 5.401,-6.862 9.783,-6.862c3.542,0 8.721,1.24 8.721,4.959l0,3.098l-6.419,0l0,-1.018c0,-0.708 -0.663,-1.24 -2.302,-1.24c-1.239,0 -2.169,0.267 -2.169,1.151c0,1.373 1.815,1.903 3.984,2.479c3.409,0.93 7.747,2.347 7.747,7.083c0,5.135 -4.958,7.349 -10.403,7.349c-4.073,0 -9.739,-1.771 -9.739,-5.534l0,-3.054" style="fill:#fff;fill-rule:nonzero;"/><path d="M88.887,68.2l-3.099,0l0,-5.534l3.32,0l0,-6.153l7.437,0l0,6.153l4.781,0l0,5.534l-4.781,0l0,8.057c0,2.7 2.612,3.142 4.073,3.142c0.31,0 0.576,-0.044 0.753,-0.044l0.265,0l0,6.197l-0.576,0.089c-0.353,0.044 -0.84,0.044 -1.504,0.044c-3.675,0 -10.669,-0.973 -10.669,-8.632l0,-8.853" style="fill:#fff;fill-rule:nonzero;"/><path d="M107.301,53.812l7.481,0l0,5.977l-7.481,0l0,-5.977Zm-2.967,26.118l2.877,0l0,-11.73l-3.098,0l0,-5.534l10.757,0l0,17.264l2.878,0l0,5.534l-13.414,0l0,-5.534" style="fill:#fff;fill-rule:nonzero;"/><path d="M118.497,62.666l12.129,0l0,5.534l-2.035,0l2.612,8.233c0.309,0.664 0.353,1.461 0.486,2.037l0.133,0.973l0.177,0l0.133,-0.973c0.133,-0.576 0.265,-1.373 0.487,-2.037l2.611,-8.233l-2.036,0l0,-5.534l12.129,0l0,5.534l-2.566,0l-6.331,17.264l-9.032,0l-6.33,-17.264l-2.567,0l0,-5.534" style="fill:#fff;fill-rule:nonzero;"/><path d="M155.944,80.461c1.946,0 3.895,-2.346 3.895,-4.338l0,-0.531l-0.707,0c-2.524,0 -5.225,0.796 -5.225,2.833c0,1.195 0.797,2.036 2.037,2.036Zm2.434,-9.163l1.373,0l0,-0.664c0,-1.904 -1.506,-2.524 -3.232,-2.524c-1.549,0 -3.098,0.531 -4.294,1.062c-0.709,0.311 -1.372,0.71 -1.992,1.107l-2.656,-5.179c0.797,-0.575 1.682,-1.062 2.656,-1.506c1.726,-0.752 4.117,-1.46 6.994,-1.46c6.685,0 10.181,3.276 10.181,9.296l0,7.527c0,0.663 0.311,0.973 0.975,0.973l1.683,0l0,5.534l-6.597,0c-2.257,0 -3.054,-1.284 -3.054,-2.391l0,-0.132c0,-0.222 0,-0.399 0.044,-0.487c0.044,-0.089 0.044,-0.178 0.044,-0.222l-0.088,0c-0.399,0.709 -0.931,1.328 -1.55,1.86c-1.063,0.929 -2.701,1.903 -5.18,1.903c-3.983,0 -7.48,-2.435 -7.48,-7.038c0,-6.685 8.632,-7.659 12.173,-7.659" style="fill:#fff;fill-rule:nonzero;"/><path d="M173.07,59.346l-3.1,0l0,-5.534l10.758,0l0,22.798c0,2.169 0.399,2.923 2.125,2.923c0.311,0 0.488,-0.046 0.664,-0.046l0.267,0l0,6.065l-0.665,0.089c-0.487,0.044 -0.973,0.044 -1.638,0.044c-4.027,0 -8.411,-0.973 -8.411,-8.632l0,-17.707" style="fill:#fff;fill-rule:nonzero;"/><path d="M185.774,77.407l6.418,0l0,1.151c0,1.107 1.107,1.638 3.32,1.638c1.861,0 2.789,-0.443 2.789,-1.329c0,-1.416 -1.505,-1.638 -4.471,-2.567c-3.32,-1.062 -7.259,-2.745 -7.259,-7.304c0,-5.357 5.4,-6.862 9.783,-6.862c3.541,0 8.72,1.24 8.72,4.959l0,3.098l-6.418,0l0,-1.018c0,-0.708 -0.664,-1.24 -2.302,-1.24c-1.24,0 -2.169,0.267 -2.169,1.151c0,1.373 1.814,1.903 3.984,2.479c3.409,0.93 7.747,2.347 7.747,7.083c0,5.135 -4.959,7.349 -10.404,7.349c-4.073,0 -9.738,-1.771 -9.738,-5.534l0,-3.054" style="fill:#fff;fill-rule:nonzero;"/></g></svg>